<svg width="344" height="152" viewBox="0 0 344 152" fill="none" xmlns="http://www.w3.org/2000/svg">
<path d="M35.4268 60H19.4425V14.9091H35.5589C40.0945 14.9091 43.9988 15.8118 47.272 17.6172C50.5452 19.4079 53.0625 21.9839 54.8239 25.3452C56.5999 28.7064 57.4879 32.7282 57.4879 37.4105C57.4879 42.1075 56.5999 46.1439 54.8239 49.5199C53.0625 52.8958 50.5305 55.4865 47.228 57.2919C43.9401 59.0973 40.0064 60 35.4268 60ZM28.9759 51.8317H35.0305C37.8487 51.8317 40.2192 51.3326 42.142 50.3345C44.0795 49.3217 45.5327 47.7585 46.5014 45.6449C47.4848 43.5166 47.9766 40.7718 47.9766 37.4105C47.9766 34.0786 47.4848 31.3558 46.5014 29.2422C45.5327 27.1286 44.0869 25.5727 42.1641 24.5746C40.2412 23.5765 37.8707 23.0774 35.0526 23.0774H28.9759V51.8317ZM43.9499 105.695H34.3065C34.1303 104.448 33.7707 103.339 33.2276 102.371C32.6845 101.387 31.9873 100.551 31.136 99.8608C30.2847 99.1709 29.3013 98.6425 28.1857 98.2756C27.0849 97.9086 25.8886 97.7251 24.5969 97.7251C22.2631 97.7251 20.2302 98.3049 18.4982 99.4645C16.7662 100.609 15.4232 102.283 14.4691 104.484C13.515 106.671 13.038 109.328 13.038 112.455C13.038 115.669 13.515 118.37 14.4691 120.557C15.4379 122.744 16.7882 124.395 18.5202 125.511C20.2522 126.626 22.2558 127.184 24.5309 127.184C25.8079 127.184 26.9895 127.015 28.0756 126.678C29.1765 126.34 30.1526 125.848 31.0039 125.202C31.8552 124.542 32.5598 123.742 33.1175 122.803C33.69 121.863 34.0863 120.792 34.3065 119.588L43.9499 119.632C43.7004 121.702 43.0766 123.698 42.0785 125.621C41.0951 127.529 39.7667 129.239 38.0934 130.751C36.4348 132.248 34.4532 133.437 32.1488 134.317C29.859 135.183 27.2683 135.616 24.3768 135.616C20.355 135.616 16.7589 134.706 13.5884 132.886C10.4326 131.066 7.93738 128.432 6.10263 124.982C4.28255 121.533 3.37251 117.357 3.37251 112.455C3.37251 107.537 4.29723 103.354 6.14666 99.9048C7.99609 96.4555 10.506 93.8281 13.6765 92.0227C16.8469 90.2027 20.4137 89.2926 24.3768 89.2926C26.9895 89.2926 29.4113 89.6596 31.6424 90.3935C33.8881 91.1274 35.877 92.1989 37.609 93.608C39.341 95.0024 40.7501 96.7124 41.8363 98.7379C42.9371 100.763 43.6417 103.083 43.9499 105.695Z" fill="#364FC7"/>
<path d="M64.5499 60V14.9091H94.9334V22.7692H74.0833V33.5135H93.3702V41.3736H74.0833V52.1399H95.0215V60H64.5499ZM92.2223 112.455C92.2223 117.372 91.2902 121.555 89.4261 125.004C87.5767 128.454 85.0521 131.088 81.8523 132.908C78.6671 134.714 75.0857 135.616 71.108 135.616C67.1009 135.616 63.5047 134.706 60.3196 132.886C57.1345 131.066 54.6172 128.432 52.7678 124.982C50.9183 121.533 49.9936 117.357 49.9936 112.455C49.9936 107.537 50.9183 103.354 52.7678 99.9048C54.6172 96.4555 57.1345 93.8281 60.3196 92.0227C63.5047 90.2027 67.1009 89.2926 71.108 89.2926C75.0857 89.2926 78.6671 90.2027 81.8523 92.0227C85.0521 93.8281 87.5767 96.4555 89.4261 99.9048C91.2902 103.354 92.2223 107.537 92.2223 112.455ZM82.5568 112.455C82.5568 109.269 82.0798 106.583 81.1257 104.396C80.1863 102.209 78.858 100.551 77.1406 99.4205C75.4233 98.2902 73.4124 97.7251 71.108 97.7251C68.8035 97.7251 66.7926 98.2902 65.0753 99.4205C63.358 100.551 62.0223 102.209 61.0682 104.396C60.1288 106.583 59.6591 109.269 59.6591 112.455C59.6591 115.64 60.1288 118.326 61.0682 120.513C62.0223 122.7 63.358 124.358 65.0753 125.489C66.7926 126.619 68.8035 127.184 71.108 127.184C73.4124 127.184 75.4233 126.619 77.1406 125.489C78.858 124.358 80.1863 122.7 81.1257 120.513C82.0798 118.326 82.5568 115.64 82.5568 112.455Z" fill="#91A7FF"/>
<path d="M108.324 23.6364L117.113 51.2642H117.45L126.257 23.6364H134.78L122.244 60H112.337L99.7834 23.6364H108.324ZM139.157 60V23.6364H163.659V29.9751H146.845V38.6399H162.399V44.9787H146.845V53.6612H163.73V60H139.157ZM169.772 60V23.6364H177.46V53.6612H193.05V60H169.772ZM230.141 41.8182C230.141 45.7836 229.39 49.1572 227.886 51.9389C226.395 54.7206 224.359 56.8454 221.778 58.3132C219.21 59.7692 216.321 60.4972 213.113 60.4972C209.882 60.4972 206.982 59.7633 204.413 58.2955C201.845 56.8277 199.814 54.7029 198.323 51.9212C196.831 49.1394 196.086 45.7718 196.086 41.8182C196.086 37.8527 196.831 34.4792 198.323 31.6974C199.814 28.9157 201.845 26.7969 204.413 25.3409C206.982 23.8731 209.882 23.1392 213.113 23.1392C216.321 23.1392 219.21 23.8731 221.778 25.3409C224.359 26.7969 226.395 28.9157 227.886 31.6974C229.39 34.4792 230.141 37.8527 230.141 41.8182ZM222.346 41.8182C222.346 39.2495 221.962 37.0833 221.192 35.3196C220.435 33.5559 219.363 32.2183 217.979 31.3068C216.594 30.3954 214.972 29.9396 213.113 29.9396C211.255 29.9396 209.633 30.3954 208.248 31.3068C206.863 32.2183 205.786 33.5559 205.017 35.3196C204.259 37.0833 203.881 39.2495 203.881 41.8182C203.881 44.3868 204.259 46.553 205.017 48.3168C205.786 50.0805 206.863 51.4181 208.248 52.3295C209.633 53.241 211.255 53.6967 213.113 53.6967C214.972 53.6967 216.594 53.241 217.979 52.3295C219.363 51.4181 220.435 50.0805 221.192 48.3168C221.962 46.553 222.346 44.3868 222.346 41.8182ZM235.836 60V23.6364H250.183C252.941 23.6364 255.291 24.1631 257.232 25.2166C259.173 26.2583 260.653 27.7083 261.671 29.5668C262.701 31.4134 263.216 33.544 263.216 35.9588C263.216 38.3736 262.695 40.5043 261.653 42.3509C260.611 44.1974 259.102 45.6357 257.125 46.6655C255.16 47.6953 252.781 48.2102 249.988 48.2102H240.843V42.049H248.745C250.224 42.049 251.444 41.7945 252.402 41.2855C253.373 40.7647 254.095 40.0485 254.569 39.1371C255.054 38.2138 255.297 37.1544 255.297 35.9588C255.297 34.7514 255.054 33.6979 254.569 32.7983C254.095 31.8868 253.373 31.1825 252.402 30.6854C251.432 30.1764 250.201 29.9219 248.709 29.9219H243.525V60H235.836ZM268.209 60V23.6364H292.712V29.9751H275.898V38.6399H291.452V44.9787H275.898V53.6612H292.783V60H268.209ZM298.825 60V23.6364H313.171C315.917 23.6364 318.261 24.1276 320.202 25.1101C322.156 26.0807 323.641 27.4598 324.659 29.2472C325.689 31.0227 326.204 33.112 326.204 35.5149C326.204 37.9297 325.683 40.0071 324.641 41.7472C323.6 43.4754 322.09 44.8011 320.114 45.7244C318.149 46.6477 315.769 47.1094 312.976 47.1094H303.37V40.9304H311.733C313.201 40.9304 314.42 40.7292 315.391 40.3267C316.361 39.9242 317.083 39.3205 317.557 38.5156C318.042 37.7107 318.285 36.7105 318.285 35.5149C318.285 34.3075 318.042 33.2895 317.557 32.4609C317.083 31.6323 316.355 31.005 315.373 30.5788C314.402 30.1409 313.177 29.9219 311.697 29.9219H306.513V60H298.825ZM318.462 43.4517L327.5 60H319.013L310.17 43.4517H318.462ZM98.5257 98.6364H108.007L118.021 123.068H118.448L128.462 98.6364H137.943V135H130.486V111.332H130.184L120.774 134.822H115.695L106.285 111.243H105.983V135H98.5257V98.6364ZM144.278 98.6364H153.759L163.773 123.068H164.2L174.214 98.6364H183.695V135H176.238V111.332H175.936L166.526 134.822H161.447L152.037 111.243H151.735V135H144.278V98.6364ZM212.491 98.6364H220.179V122.251C220.179 124.903 219.546 127.223 218.279 129.212C217.024 131.2 215.266 132.751 213.006 133.864C210.745 134.964 208.111 135.515 205.104 135.515C202.086 135.515 199.446 134.964 197.185 133.864C194.924 132.751 193.166 131.2 191.912 129.212C190.657 127.223 190.03 124.903 190.03 122.251V98.6364H197.718V121.594C197.718 122.979 198.02 124.21 198.623 125.288C199.239 126.365 200.103 127.211 201.216 127.827C202.328 128.442 203.625 128.75 205.104 128.75C206.596 128.75 207.892 128.442 208.993 127.827C210.105 127.211 210.964 126.365 211.567 125.288C212.183 124.21 212.491 122.979 212.491 121.594V98.6364ZM256.92 98.6364V135H250.279L234.459 112.113H234.192V135H226.504V98.6364H233.251L248.947 121.506H249.267V98.6364H256.92ZM270.96 98.6364V135H263.272V98.6364H270.96ZM275.901 104.975V98.6364H305.766V104.975H294.633V135H287.033V104.975H275.901ZM308.553 98.6364H317.165L325.457 114.297H325.812L334.104 98.6364H342.715L329.452 122.145V135H321.817V122.145L308.553 98.6364Z" fill="#333333"/>
<path d="M15.5234 72.3295H60.6143V76.5568H15.5234V72.3295ZM0.246094 147.33H46.8782V151.557H0.246094V147.33Z" fill="#364FC7"/>
<path d="M60.6309 72.3295H98.6103V76.5568H60.6309V72.3295ZM46.8672 147.33H95.3487V151.557H46.8672V147.33Z" fill="#91A7FF"/>
<rect y="148" width="95" height="4" fill="#91A7FF"/>
<rect y="148" width="47" height="4" fill="#364FC7"/>
</svg>
