<svg width="276" height="102" viewBox="0 0 276 102" fill="none" xmlns="http://www.w3.org/2000/svg">
<path d="M27.4041 38H13.9979V0.181817H27.5149C31.3189 0.181817 34.5935 0.93892 37.3388 2.45312C40.084 3.95502 42.1953 6.11553 43.6726 8.93466C45.1622 11.7538 45.907 15.1269 45.907 19.054C45.907 22.9934 45.1622 26.3788 43.6726 29.2102C42.1953 32.0417 40.0717 34.2145 37.3018 35.7287C34.5443 37.2429 31.245 38 27.4041 38ZM21.9936 31.1491H27.0717C29.4354 31.1491 31.4235 30.7306 33.0362 29.8935C34.6612 29.044 35.88 27.733 36.6925 25.9602C37.5173 24.1752 37.9297 21.8731 37.9297 19.054C37.9297 16.2595 37.5173 13.9759 36.6925 12.2031C35.88 10.4304 34.6674 9.12547 33.0547 8.28835C31.442 7.45123 29.4538 7.03267 27.0902 7.03267H21.9936V31.1491ZM34.9107 76.4219H26.8226C26.6749 75.3755 26.3733 74.446 25.9178 73.6335C25.4623 72.8087 24.8775 72.107 24.1635 71.5284C23.4495 70.9498 22.6247 70.5066 21.6891 70.1989C20.7658 69.8911 19.7625 69.7372 18.6792 69.7372C16.7218 69.7372 15.0168 70.2235 13.5641 71.196C12.1114 72.1562 10.985 73.5597 10.1848 75.4062C9.38465 77.2405 8.98455 79.4687 8.98455 82.0909C8.98455 84.7869 9.38465 87.0521 10.1848 88.8864C10.9973 90.7206 12.1299 92.1056 13.5826 93.0412C15.0352 93.9768 16.7156 94.4446 18.6238 94.4446C19.6948 94.4446 20.6858 94.303 21.5968 94.0199C22.5201 93.7367 23.3387 93.3243 24.0527 92.7827C24.7668 92.2287 25.3577 91.5578 25.8255 90.7699C26.3056 89.982 26.638 89.0833 26.8226 88.0739L34.9107 88.1108C34.7014 89.8466 34.1782 91.5208 33.3411 93.1335C32.5163 94.7339 31.4022 96.1681 29.9988 97.4361C28.6077 98.6918 26.9457 99.6889 25.013 100.428C23.0925 101.154 20.9197 101.517 18.4945 101.517C15.1214 101.517 12.1053 100.754 9.4462 99.2273C6.79942 97.7008 4.70662 95.491 3.16779 92.598C1.64128 89.705 0.878018 86.2027 0.878018 82.0909C0.878018 77.9669 1.65359 74.4583 3.20472 71.5653C4.75586 68.6723 6.86097 66.4687 9.52006 64.9545C12.1792 63.428 15.1706 62.6648 18.4945 62.6648C20.6858 62.6648 22.717 62.9725 24.5882 63.5881C26.4718 64.2036 28.1399 65.1023 29.5925 66.2841C31.0452 67.4536 32.227 68.8878 33.138 70.5866C34.0613 72.2855 34.6522 74.2306 34.9107 76.4219Z" fill="#364FC7"/>
<path d="M51.8299 38V0.181817H77.3129V6.77415H59.8256V15.7855H76.0018V22.3778H59.8256V31.4077H77.3867V38H51.8299ZM75.3972 82.0909C75.3972 86.215 74.6155 89.7235 73.052 92.6165C71.5009 95.5095 69.3835 97.7192 66.6998 99.2457C64.0284 100.76 61.0246 101.517 57.6884 101.517C54.3276 101.517 51.3115 100.754 48.6401 99.2273C45.9687 97.7008 43.8574 95.491 42.3063 92.598C40.7551 89.705 39.9796 86.2027 39.9796 82.0909C39.9796 77.9669 40.7551 74.4583 42.3063 71.5653C43.8574 68.6723 45.9687 66.4687 48.6401 64.9545C51.3115 63.428 54.3276 62.6648 57.6884 62.6648C61.0246 62.6648 64.0284 63.428 66.6998 64.9545C69.3835 66.4687 71.5009 68.6723 73.052 71.5653C74.6155 74.4583 75.3972 77.9669 75.3972 82.0909ZM67.2907 82.0909C67.2907 79.4195 66.8906 77.1667 66.0904 75.3324C65.3025 73.4981 64.1884 72.107 62.748 71.1591C61.3077 70.2112 59.6212 69.7372 57.6884 69.7372C55.7556 69.7372 54.0691 70.2112 52.6287 71.1591C51.1884 72.107 50.0681 73.4981 49.2679 75.3324C48.4801 77.1667 48.0861 79.4195 48.0861 82.0909C48.0861 84.7623 48.4801 87.0152 49.2679 88.8494C50.0681 90.6837 51.1884 92.0748 52.6287 93.0227C54.0691 93.9706 55.7556 94.4446 57.6884 94.4446C59.6212 94.4446 61.3077 93.9706 62.748 93.0227C64.1884 92.0748 65.3025 90.6837 66.0904 88.8494C66.8906 87.0152 67.2907 84.7623 67.2907 82.0909Z" fill="#91A7FF"/>
<path d="M88.1669 8.90909L95.1982 31.0114H95.468L102.513 8.90909H109.332L99.3033 38H91.3771L81.3345 8.90909H88.1669ZM112.833 38V8.90909H132.435V13.9801H118.984V20.9119H131.427V25.983H118.984V32.929H132.492V38H112.833ZM137.325 38V8.90909H143.476V32.929H155.947V38H137.325ZM185.621 23.4545C185.621 26.6269 185.019 29.3258 183.817 31.5511C182.624 33.7765 180.995 35.4763 178.93 36.6506C176.875 37.8153 174.565 38.3977 171.999 38.3977C169.413 38.3977 167.093 37.8106 165.038 36.6364C162.983 35.4621 161.359 33.7623 160.166 31.5369C158.973 29.3116 158.376 26.6174 158.376 23.4545C158.376 20.2822 158.973 17.5833 160.166 15.358C161.359 13.1326 162.983 11.4375 165.038 10.2727C167.093 9.09848 169.413 8.51136 171.999 8.51136C174.565 8.51136 176.875 9.09848 178.93 10.2727C180.995 11.4375 182.624 13.1326 183.817 15.358C185.019 17.5833 185.621 20.2822 185.621 23.4545ZM179.385 23.4545C179.385 21.3996 179.077 19.6667 178.462 18.2557C177.856 16.8447 176.999 15.7746 175.891 15.0455C174.783 14.3163 173.485 13.9517 171.999 13.9517C170.512 13.9517 169.214 14.3163 168.107 15.0455C166.999 15.7746 166.137 16.8447 165.521 18.2557C164.915 19.6667 164.612 21.3996 164.612 23.4545C164.612 25.5095 164.915 27.2424 165.521 28.6534C166.137 30.0644 166.999 31.1345 168.107 31.8636C169.214 32.5928 170.512 32.9574 171.999 32.9574C173.485 32.9574 174.783 32.5928 175.891 31.8636C176.999 31.1345 177.856 30.0644 178.462 28.6534C179.077 27.2424 179.385 25.5095 179.385 23.4545ZM190.177 38V8.90909H201.654C203.861 8.90909 205.74 9.33049 207.293 10.1733C208.846 11.0066 210.03 12.1667 210.844 13.6534C211.668 15.1307 212.08 16.8352 212.08 18.767C212.08 20.6989 211.664 22.4034 210.83 23.8807C209.997 25.358 208.79 26.5085 207.208 27.3324C205.636 28.1562 203.733 28.5682 201.498 28.5682H194.183V23.6392H200.504C201.687 23.6392 202.663 23.4356 203.43 23.0284C204.206 22.6117 204.784 22.0388 205.163 21.3097C205.551 20.571 205.745 19.7235 205.745 18.767C205.745 17.8011 205.551 16.9583 205.163 16.2386C204.784 15.5095 204.206 14.946 203.43 14.5483C202.653 14.1411 201.668 13.9375 200.475 13.9375H196.327V38H190.177ZM216.075 38V8.90909H235.678V13.9801H222.226V20.9119H234.669V25.983H222.226V32.929H235.734V38H216.075ZM240.567 38V8.90909H252.045C254.242 8.90909 256.117 9.30208 257.67 10.0881C259.232 10.8646 260.421 11.9678 261.235 13.3977C262.059 14.8182 262.471 16.4896 262.471 18.4119C262.471 20.3437 262.054 22.0057 261.221 23.3977C260.388 24.7803 259.18 25.8409 257.599 26.5795C256.027 27.3182 254.123 27.6875 251.888 27.6875H244.204V22.7443H250.894C252.068 22.7443 253.044 22.5833 253.82 22.2614C254.597 21.9394 255.174 21.4564 255.553 20.8125C255.942 20.1686 256.136 19.3684 256.136 18.4119C256.136 17.446 255.942 16.6316 255.553 15.9688C255.174 15.3059 254.592 14.804 253.806 14.4631C253.03 14.1127 252.049 13.9375 250.866 13.9375H246.718V38H240.567ZM256.278 24.7614L263.508 38H256.718L249.644 24.7614H256.278ZM80.5616 71.9091H88.1468L96.1582 91.4545H96.4991L104.51 71.9091H112.096V101H106.13V82.0653H105.888L98.3599 100.858H94.2974L86.769 81.9943H86.5275V101H80.5616V71.9091ZM117.163 71.9091H124.748L132.76 91.4545H133.101L141.112 71.9091H148.697V101H142.731V82.0653H142.49L134.961 100.858H130.899L123.371 81.9943H123.129V101H117.163V71.9091ZM171.733 71.9091H177.884V90.8011C177.884 92.9223 177.377 94.7784 176.364 96.3693C175.36 97.9602 173.954 99.2008 172.145 100.091C170.337 100.972 168.23 101.412 165.824 101.412C163.41 101.412 161.298 100.972 159.489 100.091C157.68 99.2008 156.274 97.9602 155.27 96.3693C154.267 94.7784 153.765 92.9223 153.765 90.8011V71.9091H159.915V90.2756C159.915 91.3835 160.157 92.3684 160.64 93.2301C161.132 94.0919 161.823 94.7689 162.714 95.2614C163.604 95.7538 164.641 96 165.824 96C167.018 96 168.055 95.7538 168.935 95.2614C169.825 94.7689 170.512 94.0919 170.995 93.2301C171.487 92.3684 171.733 91.3835 171.733 90.2756V71.9091ZM207.277 71.9091V101H201.964L189.308 82.6903H189.095V101H182.944V71.9091H188.342L200.899 90.2045H201.155V71.9091H207.277ZM218.509 71.9091V101H212.358V71.9091H218.509ZM222.461 76.9801V71.9091H246.354V76.9801H237.447V101H231.368V76.9801H222.461ZM248.584 71.9091H255.473L262.106 84.4375H262.39L269.024 71.9091H275.913L265.302 90.7159V101H259.194V90.7159L248.584 71.9091Z" fill="#333333"/>
<path d="M10.7109 48.3409H48.5291V51.8864H10.7109V48.3409ZM-1.74414 111.341H37.3667V114.886H-1.74414V111.341Z" fill="#364FC7"/>
<path d="M48.543 48.3409H80.3967V51.8864H48.543V48.3409ZM37.3574 111.341H78.0194V114.886H37.3574V111.341Z" fill="#91A7FF"/>
</svg>
