<svg width="20" height="20" viewBox="0 0 20 20" fill="none" xmlns="http://www.w3.org/2000/svg">
<path d="M6.66927 20C7.55333 20 8.40117 19.6489 9.02629 19.0237C9.65141 18.3986 10.0026 17.5508 10.0026 16.6667V13.3334H6.66927C5.78522 13.3334 4.93737 13.6846 4.31225 14.3097C3.68713 14.9348 3.33594 15.7827 3.33594 16.6667C3.33594 17.5508 3.68713 18.3986 4.31225 19.0237C4.93737 19.6489 5.78522 20 6.66927 20Z" fill="#0ACF83"/>
<path d="M3.33594 9.99996C3.33594 9.1159 3.68713 8.26806 4.31225 7.64294C4.93737 7.01782 5.78522 6.66663 6.66927 6.66663H10.0026V13.3333H6.66927C5.78522 13.3333 4.93737 12.9821 4.31225 12.357C3.68713 11.7319 3.33594 10.884 3.33594 9.99996Z" fill="#A259FF"/>
<path d="M3.33594 3.33333C3.33594 2.44973 3.68677 1.60228 4.31133 0.977231C4.93589 0.352184 5.78306 0.000690316 6.66667 0L10 0V6.66667H6.66927C5.78522 6.66667 4.93737 6.31548 4.31225 5.69036C3.68713 5.06523 3.33594 4.21739 3.33594 3.33333Z" fill="#F24E1E"/>
<path d="M10.0027 0H13.336C14.2201 0 15.0679 0.351189 15.693 0.976311C16.3182 1.60143 16.6694 2.44928 16.6694 3.33333C16.6694 4.21739 16.3182 5.06523 15.693 5.69036C15.0679 6.31548 14.2201 6.66667 13.336 6.66667H10.0027V0Z" fill="#FF7262"/>
<path d="M16.6694 9.99996C16.6694 10.884 16.3182 11.7319 15.693 12.357C15.0679 12.9821 14.2201 13.3333 13.336 13.3333C12.452 13.3333 11.6041 12.9821 10.979 12.357C10.3539 11.7319 10.0027 10.884 10.0027 9.99996C10.0027 9.1159 10.3539 8.26806 10.979 7.64294C11.6041 7.01782 12.452 6.66663 13.336 6.66663C14.2201 6.66663 15.0679 7.01782 15.693 7.64294C16.3182 8.26806 16.6694 9.1159 16.6694 9.99996Z" fill="#1ABCFE"/>
</svg>
