<svg width="20" height="20" viewBox="0 0 20 20" fill="none" xmlns="http://www.w3.org/2000/svg">
<g clip-path="url(#clip0_178_181)">
<path d="M20 0H0V20H20V0Z" fill="#F7DF1E"/>
<path d="M13.435 15.6251C13.8379 16.2829 14.362 16.7664 15.289 16.7664C16.0677 16.7664 16.5652 16.3772 16.5652 15.8394C16.5652 15.195 16.0541 14.9667 15.1969 14.5918L14.7271 14.3902C13.3709 13.8124 12.4699 13.0886 12.4699 11.5585C12.4699 10.1489 13.5439 9.07593 15.2223 9.07593C16.4172 9.07593 17.2763 9.4918 17.8953 10.5807L16.4318 11.5204C16.1096 10.9426 15.762 10.715 15.2223 10.715C14.6718 10.715 14.3229 11.0642 14.3229 11.5204C14.3229 12.0842 14.6721 12.3124 15.4785 12.6616L15.9483 12.8629C17.5452 13.5477 18.4467 14.2458 18.4467 15.8153C18.4467 17.5074 17.1175 18.4343 15.3325 18.4343C13.5871 18.4343 12.4594 17.6026 11.9077 16.5124L13.435 15.6251ZM6.79595 15.788C7.09119 16.3118 7.35976 16.7547 8.00548 16.7547C8.62294 16.7547 9.01246 16.5131 9.01246 15.5737V9.18323H10.8918V15.5991C10.8918 17.5451 9.75088 18.4308 8.08548 18.4308C6.58072 18.4308 5.70929 17.6521 5.26611 16.7142L6.79595 15.788Z" fill="black"/>
</g>
<defs>
<clipPath id="clip0_178_181">
<rect width="20" height="20" fill="white"/>
</clipPath>
</defs>
</svg>
