<svg width="20" height="20" viewBox="0 0 20 20" fill="none" xmlns="http://www.w3.org/2000/svg">
<g clip-path="url(#clip0_116_716)">
<path d="M9.99989 12.0036C10.9844 12.0036 11.7825 11.1066 11.7825 10C11.7825 8.89349 10.9844 7.99646 9.99989 7.99646C9.01539 7.99646 8.21729 8.89349 8.21729 10C8.21729 11.1066 9.01539 12.0036 9.99989 12.0036Z" fill="#61DAFB"/>
<path d="M10 14.1049C15.2828 14.1049 19.5652 12.2671 19.5652 10C19.5652 7.73296 15.2828 5.89514 10 5.89514C4.71731 5.89514 0.434814 7.73296 0.434814 10C0.434814 12.2671 4.71731 14.1049 10 14.1049Z" stroke="#61DAFB"/>
<path d="M6.83723 12.0525C9.47859 17.1945 13.0359 20.4441 14.7827 19.3106C16.5295 18.177 15.8043 13.0897 13.163 7.9476C10.5216 2.80555 6.9643 -0.444008 5.2175 0.689522C3.47069 1.82305 4.19587 6.91042 6.83723 12.0525Z" stroke="#61DAFB"/>
<path d="M6.8372 7.94759C4.19584 13.0896 3.47066 18.177 5.21746 19.3105C6.96427 20.4441 10.5216 17.1945 13.1629 12.0525C15.8043 6.9104 16.5295 1.82304 14.7827 0.689507C13.0359 -0.444023 9.47856 2.80553 6.8372 7.94759Z" stroke="#61DAFB"/>
</g>
<defs>
<clipPath id="clip0_116_716">
<rect width="20" height="20" fill="white"/>
</clipPath>
</defs>
</svg>
