<svg width="20" height="20" viewBox="0 0 20 20" fill="none" xmlns="http://www.w3.org/2000/svg">
<g clip-path="url(#clip0_178_173)">
<path d="M0 10V20H20.0006V-0.000610352H0V10ZM16.1178 9.20314C16.6256 9.33002 17.0131 9.55564 17.3688 9.92377C17.5531 10.1206 17.8259 10.4794 17.8481 10.565C17.8544 10.59 16.9847 11.1744 16.4575 11.5016C16.4388 11.5141 16.3622 11.4319 16.2762 11.3047C16.0191 10.9297 15.7494 10.7681 15.3366 10.7397C14.7303 10.6985 14.3366 11.016 14.3428 11.546C14.3428 11.7016 14.3647 11.7935 14.4284 11.921C14.5619 12.1972 14.8097 12.3622 15.5872 12.6991C17.0191 13.3147 17.6316 13.721 18.0122 14.2991C18.4372 14.9435 18.5328 15.9722 18.2441 16.7372C17.9266 17.5691 17.1394 18.1341 16.0316 18.3216C15.6887 18.3819 14.8759 18.3725 14.5078 18.306C13.7047 18.1631 12.9428 17.7663 12.4728 17.2456C12.2884 17.0425 11.93 16.5122 11.9522 16.4738C11.9616 16.4613 12.0444 16.4103 12.1366 16.3563L12.8794 15.9281L13.4544 15.5947L13.575 15.7728C13.7431 16.03 14.1116 16.3822 14.3338 16.4997C14.9719 16.8363 15.8481 16.7885 16.2797 16.4013C16.4641 16.2331 16.54 16.0585 16.54 15.8013C16.54 15.5694 16.5119 15.4678 16.3909 15.2935C16.2353 15.0716 15.9178 14.8841 15.0159 14.4935C13.9841 14.0491 13.5397 13.7728 13.1334 13.3347C12.8984 13.0806 12.6763 12.6744 12.5841 12.3347C12.5078 12.0522 12.4888 11.3441 12.5491 11.0585C12.7616 10.0585 13.5141 9.36626 14.6 9.16001C14.9525 9.09345 15.7719 9.11877 16.1175 9.20439L16.1178 9.20314ZM11.4225 10.0375L11.4287 10.8563H8.82563V18.2531H6.98438V10.8563H4.38125V10.0531L4.40313 9.22814C4.4125 9.21564 5.99688 9.20939 7.9175 9.21251L11.4128 9.22189L11.4225 10.0375Z" fill="#007ACC"/>
</g>
<defs>
<clipPath id="clip0_178_173">
<rect width="20" height="20" fill="white"/>
</clipPath>
</defs>
</svg>
