<?xml version="1.0" standalone="no"?>
<!DOCTYPE svg PUBLIC "-//W3C//DTD SVG 20010904//EN"
 "http://www.w3.org/TR/2001/REC-SVG-20010904/DTD/svg10.dtd">
<svg version="1.0" xmlns="http://www.w3.org/2000/svg"
 width="137.000000pt" height="137.000000pt" viewBox="0 0 137.000000 137.000000"
 preserveAspectRatio="xMidYMid meet">

<g transform="translate(0.000000,137.000000) scale(0.100000,-0.100000)"
fill="#000000" stroke="none">
<path d="M545 1356 c-525 -122 -722 -753 -356 -1140 305 -321 819 -275 1067
94 78 116 109 224 109 380 0 100 -4 127 -29 204 -68 207 -232 372 -437 440
-102 34 -259 44 -354 22z m294 -51 c219 -52 414 -247 466 -466 19 -81 19 -226
0 -307 -14 -59 -75 -195 -93 -205 -4 -3 -23 24 -42 60 -44 85 -122 169 -201
215 -35 21 -67 39 -73 41 -5 2 4 21 21 43 115 144 67 361 -99 443 -51 26 -73
31 -133 31 -119 0 -210 -57 -271 -170 -14 -26 -19 -56 -19 -120 0 -90 19 -143
69 -199 12 -13 16 -25 10 -28 -5 -2 -38 -20 -73 -41 -79 -46 -157 -130 -201
-215 -19 -36 -39 -63 -44 -60 -16 10 -84 167 -95 221 -16 75 -13 215 4 291 52
218 247 413 467 466 73 18 230 18 307 0z m-43 -213 c127 -65 175 -219 108
-342 -46 -85 -122 -130 -219 -130 -97 0 -173 45 -219 130 -76 140 -4 309 154
361 40 13 133 3 176 -19z m-206 -502 c72 -25 121 -25 198 2 l62 22 48 -23
c115 -56 210 -157 252 -269 l22 -57 -57 -52 c-69 -63 -189 -127 -276 -148 -82
-19 -226 -19 -308 0 -87 21 -207 85 -276 148 l-57 52 22 57 c40 108 121 197
234 260 60 33 65 33 136 8z"/>
</g>
</svg>
